<?xml version="1.0" encoding="UTF-8" standalone="no"?>
<!DOCTYPE svg PUBLIC "-//W3C//DTD SVG 1.1//EN" "http://www.w3.org/Graphics/SVG/1.1/DTD/svg11.dtd">
<svg width="100%" height="100%" viewBox="0 0 2262 2279" version="1.1" xmlns="http://www.w3.org/2000/svg" xmlns:xlink="http://www.w3.org/1999/xlink" xml:space="preserve" xmlns:serif="http://www.serif.com/" style="fill-rule:evenodd;clip-rule:evenodd;stroke-linecap:round;stroke-linejoin:round;stroke-miterlimit:1.5;">
    <g transform="matrix(1,0,0,1,-1124.274721,-707.859539)">
        <g transform="matrix(1,0,0,1,40.782479,55.868903)">
            <path d="M2234.713,1615.478C2234.713,1615.478 1645.678,1847.662 2339.441,2081.341C2534.546,2147.057 2720.366,1969.651 2765.758,1826.303C2835.975,1604.56 2733.554,1146.005 2159.334,1146.005C1728.821,1146.005 1514.281,1420.471 1514.281,1791.058C1514.281,2161.644 1877.874,2460.598 2183.822,2460.598C2724.666,2460.598 3212.739,2284.257 3212.739,1532.89C3212.739,781.524 2362.423,741.675 2247.352,741.675C2132.282,741.675 1173.076,709.058 1173.076,1815.952C1173.076,2592.378 1739.347,2840.956 2198.08,2840.956C2623.742,2840.956 2904.102,2507.945 3255.107,2524.757" style="fill:none;stroke:rgb(242,145,188);stroke-width:179.17px;"/>
        </g>
    </g>
</svg>
